<?xml version="1.0" standalone="no"?>
<!DOCTYPE svg PUBLIC "-//W3C//DTD SVG 20010904//EN"
 "http://www.w3.org/TR/2001/REC-SVG-20010904/DTD/svg10.dtd">
<svg version="1.0" xmlns="http://www.w3.org/2000/svg"
 width="808.000000pt" height="808.000000pt" viewBox="0 0 808.000000 808.000000"
 preserveAspectRatio="xMidYMid meet">
<metadata>
Created by potrace 1.11, written by Peter Selinger 2001-2013
</metadata>
<g transform="translate(0.000000,808.000000) scale(0.100000,-0.100000)"
fill="#000000" stroke="none">
<path d="M4380 6721 c-25 -15 -72 -43 -105 -61 -33 -18 -104 -60 -158 -92 -55
-32 -101 -58 -103 -58 -3 0 -21 -11 -42 -24 -32 -20 -438 -255 -548 -316 -53
-30 -224 -129 -251 -146 -13 -8 -25 -13 -27 -12 -2 2 -12 -4 -22 -13 -11 -9
-37 -26 -59 -38 -22 -12 -56 -31 -75 -42 -19 -12 -98 -58 -175 -103 -77 -44
-153 -89 -170 -99 -16 -10 -42 -23 -57 -30 -16 -6 -28 -15 -28 -19 0 -4 -4 -8
-9 -8 -5 0 -87 -46 -183 -101 -95 -56 -188 -109 -205 -117 -18 -9 -33 -19 -33
-24 0 -4 -7 -8 -15 -8 -8 0 -18 -8 -23 -17 -8 -19 -11 -1499 -2 -1506 7 -5 68
-41 110 -64 19 -11 112 -64 205 -118 196 -114 464 -269 515 -298 19 -11 60
-34 90 -50 30 -17 61 -37 68 -44 7 -7 17 -13 22 -13 4 0 53 -27 107 -59 55
-32 119 -69 142 -81 l43 -21 70 40 c39 23 75 41 79 41 5 0 9 4 9 9 0 5 12 14
28 20 15 6 48 23 73 38 25 15 92 55 150 88 57 33 112 64 121 70 9 5 29 17 45
26 15 8 100 57 188 108 88 52 180 105 205 119 25 13 51 29 58 35 9 7 12 -45
13 -254 0 -145 0 -282 -1 -304 -1 -37 2 -42 32 -58 18 -9 56 -30 83 -47 28
-16 57 -33 65 -37 8 -4 42 -23 75 -43 33 -20 67 -39 75 -43 8 -4 30 -16 48
-27 30 -18 323 -188 399 -231 17 -10 50 -29 72 -43 22 -15 42 -26 45 -26 2 0
69 -38 150 -85 80 -47 150 -85 156 -85 5 0 10 -4 10 -10 0 -5 11 -12 25 -16
13 -3 29 -12 36 -20 18 -22 39 -17 114 27 39 22 95 55 125 71 30 17 57 34 60
37 3 3 23 15 45 27 22 11 148 83 280 159 132 76 260 150 285 164 25 14 47 29
48 33 2 4 8 8 14 8 5 0 23 9 39 21 16 11 29 17 29 13 0 -4 8 0 18 8 15 13 59
39 212 125 19 11 74 43 122 72 48 28 90 51 93 51 3 0 21 11 39 25 18 14 36 25
40 25 3 0 61 32 129 71 67 40 142 83 167 97 25 14 56 32 70 42 14 9 32 20 40
23 8 3 103 57 210 119 l195 114 2 454 3 455 -138 78 c-199 113 -197 111 -200
120 -2 4 -7 7 -12 7 -5 0 -47 23 -95 50 -48 28 -89 50 -91 50 -3 0 -10 5 -17
10 -7 6 -52 34 -102 62 -202 115 -334 191 -372 214 -13 8 -26 15 -30 15 -5 1
-27 14 -50 30 -23 16 -44 29 -46 29 -3 0 -39 20 -81 45 -45 26 -78 40 -82 34
-3 -6 -16 -14 -27 -20 -12 -5 -44 -22 -72 -39 -27 -16 -61 -35 -75 -42 -14 -7
-40 -23 -57 -36 -18 -14 -33 -22 -33 -18 0 3 -24 -9 -52 -28 -29 -18 -75 -45
-103 -61 -100 -55 -210 -119 -215 -125 -3 -3 -23 -14 -45 -25 -22 -11 -42 -23
-45 -26 -3 -3 -17 -12 -32 -20 -15 -8 -69 -38 -118 -66 -50 -29 -95 -53 -99
-53 -5 0 -11 -4 -13 -9 -1 -4 -12 -11 -23 -15 -21 -6 -21 -5 -20 586 0 379 -4
596 -10 604 -9 11 -133 86 -278 168 -74 41 -171 98 -197 114 -14 9 -27 17 -30
17 -3 0 -48 26 -100 56 -103 61 -145 85 -260 151 -41 23 -87 50 -101 58 -15 8
-89 51 -165 95 -77 44 -140 83 -142 87 -6 14 -26 8 -72 -21z"/>
<path d="M1219 3990 c-144 -81 -154 -86 -334 -192 -42 -25 -120 -69 -165 -94
-21 -11 -44 -25 -52 -31 -7 -5 -38 -24 -68 -40 -133 -73 -225 -128 -228 -135
-2 -4 -7 -8 -12 -8 -6 0 -63 -31 -220 -121 -14 -8 -28 -18 -32 -24 -4 -5 -8
-6 -8 -1 0 5 -8 2 -17 -6 -10 -9 -33 -23 -50 -32 l-33 -17 0 -303 0 -303 53
-29 c28 -16 60 -33 69 -39 9 -5 77 -44 150 -87 113 -65 212 -122 418 -241 19
-11 46 -27 60 -34 14 -8 39 -23 55 -33 17 -11 44 -26 60 -35 17 -8 48 -26 70
-40 22 -14 49 -30 60 -35 11 -6 27 -14 35 -20 16 -10 352 -204 430 -248 25
-14 57 -33 72 -43 14 -11 33 -19 42 -19 9 0 16 -5 16 -10 0 -6 10 -14 23 -19
12 -5 80 -43 151 -85 70 -42 131 -76 136 -76 4 0 18 -8 31 -19 13 -10 47 -30
74 -45 28 -15 57 -31 65 -36 57 -36 172 -100 179 -100 5 0 11 -3 13 -7 2 -5
22 -18 45 -31 l41 -22 76 45 c42 25 81 45 86 45 6 0 10 4 10 8 0 4 19 18 43
30 23 12 67 36 98 54 31 18 88 51 125 73 38 22 87 50 109 63 22 12 48 25 58
29 9 3 17 9 17 14 0 5 4 9 9 9 7 0 248 136 301 170 18 11 289 167 337 193 l33
19 0 303 0 303 -32 17 c-49 25 -92 49 -98 55 -3 3 -16 11 -30 17 -14 7 -43 24
-65 37 -22 14 -51 31 -65 39 -78 43 -129 73 -162 94 -21 12 -39 23 -42 23 -2
0 -34 18 -70 40 -36 22 -70 40 -76 40 -5 0 -10 4 -10 8 0 4 -12 13 -27 20 -16
7 -37 18 -48 25 -11 6 -52 30 -90 51 -39 22 -71 43 -73 48 -2 4 -8 8 -13 8 -8
0 -254 139 -319 180 -14 9 -55 32 -164 95 -28 15 -72 41 -98 56 -27 16 -53 29
-58 29 -6 0 -10 5 -10 10 0 6 -4 10 -10 10 -5 0 -55 27 -111 60 -55 33 -103
60 -105 60 -2 0 -23 12 -47 27 -23 14 -67 40 -97 56 -30 16 -62 36 -71 43 -8
8 -19 14 -22 14 -4 0 -37 18 -73 40 -36 22 -68 40 -70 40 -2 0 -33 18 -69 40
-36 22 -70 40 -75 40 -6 0 -10 4 -10 9 0 25 -45 15 -121 -29z"/>
</g>
</svg>
